<svg width="24" height="24" viewBox="0 0 24 24" fill="none" xmlns="http://www.w3.org/2000/svg">
<path fill-rule="evenodd" clip-rule="evenodd" d="M13 7.00281V13H11V7.00281H13Z" fill="#212121"/>
<path d="M20.9036 1.86473C20.9036 1.86473 20.4927 5.91696 17.9727 7.44398C15.4527 8.97099 11.9036 7.31837 11.9036 7.31837C11.9036 7.31837 12.3595 3.23888 14.8345 1.73913C17.3545 0.212107 20.9036 1.86473 20.9036 1.86473Z" fill="#212121"/>
<path d="M3.09375 1.87107C3.09375 1.87107 3.50466 5.9233 6.02466 7.45032C8.54465 8.97734 12.0938 7.32472 12.0938 7.32472C12.0938 7.32472 11.6378 3.24522 9.16284 1.74547C6.64285 0.218453 3.09375 1.87107 3.09375 1.87107Z" fill="#212121"/>
<path d="M20.3874 11H3.61255L4.48681 13.6228C4.8267 14.6424 4.99997 15.7102 4.99997 16.7851V17H19V16.7851C19 15.7102 19.1733 14.6424 19.5131 13.6228L20.3874 11Z" fill="#212121"/>
<path d="M19 19H5V20C5 21.6569 6.34315 23 8 23H16C17.6569 23 19 21.6569 19 20V19Z" fill="#212121"/>
</svg>
