<svg preserveAspectRatio="none" overflow="visible" style="display: block;" width="24" height="24" viewBox="0 0 24 24" fill="none" xmlns="http://www.w3.org/2000/svg">
<g id="Vector">
<g id="Vector_2">
<path d="M12 8.5C12.6904 8.5 13.25 7.94036 13.25 7.25C13.25 6.55964 12.6904 6 12 6C11.3096 6 10.75 6.55964 10.75 7.25C10.75 7.94036 11.3096 8.5 12 8.5Z" fill="#15803D"/>
<path d="M9 11C9 10.4477 9.44771 10 10 10H11.5C12.3283 10 13 10.6717 13 11.5V17C13 17.5523 12.5523 18 12 18C11.4477 18 11 17.5523 11 17V12H10C9.44771 12 9 11.5523 9 11Z" fill="#15803D"/>
<path fill-rule="evenodd" clip-rule="evenodd" d="M12 1C5.92487 1 1 5.92487 1 12C1 18.0751 5.92487 23 12 23C18.0751 23 23 18.0751 23 12C23 5.92487 18.0751 1 12 1ZM3 12C3 7.02944 7.02944 3 12 3C16.9706 3 21 7.02944 21 12C21 16.9706 16.9706 21 12 21C7.02944 21 3 16.9706 3 12Z" fill="#15803D"/>
</g>
</g>
</svg>
