<svg preserveAspectRatio="none" overflow="visible" style="display: block;" width="22" height="22" viewBox="0 0 22 22" fill="none" xmlns="http://www.w3.org/2000/svg">
<g id="Group">
<path id="Vector" d="M11 21C16.5228 21 21 16.5228 21 11C21 5.47715 16.5228 1 11 1C5.47715 1 1 5.47715 1 11C1 16.5228 5.47715 21 11 21Z" stroke="#A8A29E" stroke-width="2" stroke-miterlimit="10" stroke-linecap="square"/>
<path id="Vector_2" d="M11 17.5C11.6904 17.5 12.25 16.9404 12.25 16.25C12.25 15.5596 11.6904 15 11 15C10.3096 15 9.75 15.5596 9.75 16.25C9.75 16.9404 10.3096 17.5 11 17.5Z" fill="#A8A29E"/>
<path id="Vector_3" d="M8.244 7.369C8.666 5.761 9.977 4.929 11.445 5.005C12.895 5.08 14.244 5.877 14.182 7.727C14.093 10.357 11.298 10 10.985 12.5H10.996" stroke="#A8A29E" stroke-width="2" stroke-miterlimit="10" stroke-linecap="square"/>
</g>
</svg>
