<svg preserveAspectRatio="none" overflow="visible" style="display: block;" width="22" height="22" viewBox="0 0 22 22" fill="none" xmlns="http://www.w3.org/2000/svg">
<g id="Group">
<path id="Vector" d="M3.5 1H18.5C19.8813 1 21 1.895 21 3V19C21 20.105 19.8813 21 18.5 21H3.5C2.11875 21 1 20.105 1 19V3C1 1.895 2.11875 1 3.5 1Z" stroke="#15803D" stroke-width="2" stroke-linecap="round" stroke-linejoin="round"/>
<path id="Vector_2" d="M11 9C12.1046 9 13 8.10457 13 7C13 5.89543 12.1046 5 11 5C9.89543 5 9 5.89543 9 7C9 8.10457 9.89543 9 11 9Z" stroke="#15803D" stroke-width="2" stroke-linecap="round" stroke-linejoin="round"/>
<path id="Vector_3" d="M15.9 15C15.648 12.753 13.764 11 11.45 11C9.136 11 7.252 12.753 7 15H15.899H15.9Z" stroke="#15803D" stroke-width="2" stroke-linecap="round" stroke-linejoin="round"/>
</g>
</svg>
